<?xml version="1.0" standalone="no"?>
<!DOCTYPE svg PUBLIC "-//W3C//DTD SVG 20010904//EN"
 "http://www.w3.org/TR/2001/REC-SVG-20010904/DTD/svg10.dtd">
<svg version="1.0" xmlns="http://www.w3.org/2000/svg"
 width="1150.000000pt" height="742.000000pt" viewBox="0 0 1150.000000 742.000000"
 preserveAspectRatio="xMidYMid meet">

<g transform="translate(0.000000,742.000000) scale(0.100000,-0.100000)"
fill="#000000" stroke="#000000" stroke-width="20">
<path d="M5570 6764 c-324 -41 -575 -129 -795 -278 -192 -130 -359 -307 -482
-511 -104 -173 -166 -333 -206 -530 -19 -94 -22 -138 -20 -307 1 -227 13 -208
-119 -208 -128 0 -125 3 -130 -144 -2 -69 -6 -127 -9 -130 -2 -2 -53 -9 -112
-14 -60 -6 -112 -13 -115 -17 -12 -11 -8 -2043 3 -2054 10 -9 39 -8 375 19
362 29 645 40 1013 40 l397 1 0 445 0 445 48 -7 c26 -3 53 -11 60 -16 9 -8 12
-126 12 -529 l0 -519 -295 0 -295 0 0 -35 0 -35 294 0 c161 0 308 3 325 6 l31
7 0 553 0 554 29 0 c16 0 41 -4 55 -10 l26 -10 0 -560 0 -560 35 0 35 0 0 565
0 565 50 0 50 0 0 -555 0 -555 330 0 330 0 0 35 0 35 -295 0 -295 0 0 530 0
530 55 0 55 0 2 -437 3 -438 495 -6 c272 -4 558 -12 635 -18 232 -19 403 -31
538 -38 l127 -6 0 1019 c0 570 -4 1025 -9 1033 -6 9 -44 17 -117 23 -60 5
-110 11 -113 13 -2 3 -6 60 -8 127 -4 96 -9 126 -21 136 -10 7 -50 12 -111 12
-53 0 -101 4 -107 8 -6 4 -10 68 -11 172 0 190 -12 290 -54 447 -61 235 -160
427 -316 615 -252 304 -594 502 -982 569 -114 19 -322 32 -391 23z m85 -76 c3
-7 4 -242 3 -523 l-3 -510 -24 50 c-157 331 -215 420 -375 581 -56 55 -140
128 -188 163 -49 35 -88 67 -88 72 0 23 201 104 345 138 156 38 321 52 330 29z
m348 -18 c163 -33 397 -121 397 -149 0 -6 -39 -38 -87 -73 -114 -81 -281 -250
-360 -361 -67 -96 -170 -291 -198 -374 -9 -29 -18 -53 -21 -53 -2 0 -4 235 -4
521 l0 522 88 -6 c48 -4 131 -16 185 -27z m-955 -285 c285 -214 494 -536 566
-870 10 -44 22 -98 28 -120 8 -27 13 -336 15 -931 4 -732 2 -892 -9 -896 -7
-3 -32 -3 -55 0 l-43 4 0 407 c0 428 -8 529 -50 694 -45 174 -147 390 -252
532 -83 113 -270 292 -384 368 -107 71 -310 172 -458 228 -48 18 -91 40 -94
48 -3 8 9 42 28 75 106 195 288 390 482 518 85 56 74 58 226 -57z m1524 45
c184 -124 371 -326 472 -511 28 -52 34 -69 24 -77 -7 -5 -76 -35 -153 -67
-325 -131 -517 -262 -710 -483 -196 -225 -320 -512 -360 -835 -11 -89 -15
-225 -15 -504 l0 -383 -50 0 -50 0 3 913 c4 986 1 941 63 1143 62 206 171 398
319 563 105 117 322 289 367 290 9 1 49 -21 90 -49z m-2102 -727 c85 -36 194
-87 242 -114 386 -220 646 -570 736 -990 33 -150 43 -328 40 -684 l-3 -330
-41 1 c-81 1 -74 -37 -74 439 l0 427 -57 57 c-148 146 -387 282 -608 346 -121
35 -281 63 -432 75 -70 5 -129 13 -132 16 -3 3 -6 96 -6 207 1 170 4 217 23
300 25 112 76 271 98 305 18 28 9 30 214 -55z m2668 30 c45 -106 84 -251 102
-378 11 -79 11 -398 -1 -409 -3 -4 -42 -9 -85 -12 -232 -17 -465 -65 -619
-128 -165 -67 -384 -207 -480 -306 l-40 -41 -5 -437 -5 -437 -53 -3 -54 -3 4
448 c4 418 6 455 27 553 31 145 62 235 132 376 137 280 395 535 684 674 92 45
345 149 361 150 6 0 21 -21 32 -47z m-3027 -977 c15 -60 38 -136 50 -170 36
-98 122 -265 190 -366 83 -125 293 -336 409 -412 150 -99 356 -208 452 -241
l93 -32 3 -387 c1 -214 -2 -388 -6 -388 -5 0 -26 15 -48 33 -150 127 -400 251
-619 306 -172 43 -282 55 -526 56 l-217 0 -6 44 c-11 81 -7 1631 5 1652 9 18
19 19 101 17 l91 -3 28 -109z m358 89 c327 -63 627 -207 799 -383 l42 -44 0
-404 c0 -222 -4 -404 -8 -404 -36 0 -207 73 -318 136 -330 185 -546 408 -702
720 -41 81 -109 286 -118 354 l-7 53 114 -6 c63 -3 152 -13 198 -22z m2751 -1
c0 -40 -36 -171 -73 -266 -137 -346 -401 -640 -742 -823 -38 -21 -88 -48 -110
-61 -47 -27 -207 -85 -215 -78 -3 3 -7 185 -9 404 l-3 398 41 45 c23 24 80 72
129 107 241 172 613 295 905 299 76 1 77 1 77 -25z m268 18 c10 -7 12 -185 10
-857 l-3 -848 -225 -2 c-299 -2 -427 -21 -640 -93 -184 -63 -287 -116 -451
-233 -53 -38 -99 -69 -103 -69 -3 0 -6 173 -6 384 l0 384 33 11 c62 22 93 36
232 106 209 106 301 168 452 303 237 211 419 523 490 837 8 39 17 73 20 78 6
10 175 9 191 -1z m-3676 -304 c2 -13 2 -268 0 -568 -3 -300 -1 -624 3 -722 l7
-176 282 -4 c256 -4 293 -7 413 -31 249 -52 494 -162 671 -304 23 -19 42 -38
42 -43 0 -4 -98 -8 -217 -8 -367 -1 -893 -28 -1305 -68 l-68 -7 0 971 0 971
23 4 c12 2 50 5 84 6 57 1 62 -1 65 -21z m3918 12 c12 -8 15 -135 16 -952 1
-519 -1 -954 -4 -967 -5 -22 -7 -23 -67 -17 -362 37 -941 67 -1307 69 -120 0
-218 3 -218 7 0 25 188 154 310 212 128 61 304 115 462 143 126 22 171 25 389
25 l246 0 7 92 c3 50 6 385 6 745 l0 653 73 0 c39 0 79 -4 87 -10z"/>
<path d="M2345 1567 c-115 -43 -190 -110 -243 -217 -25 -51 -27 -65 -27 -175
0 -109 2 -125 27 -177 54 -115 141 -192 257 -229 79 -24 152 -24 230 0 160 50
261 169 292 343 20 112 -16 235 -99 337 -98 120 -290 172 -437 118z m199 -72
c151 -36 246 -162 246 -325 0 -168 -102 -298 -259 -329 -50 -10 -70 -9 -123 4
-108 29 -160 68 -209 157 -32 60 -34 68 -34 163 0 107 9 141 56 211 37 55 98
95 178 116 80 21 73 20 145 3z"/>
<path d="M3525 1569 c-168 -59 -276 -198 -291 -373 -10 -123 56 -274 156 -353
142 -112 327 -121 478 -24 71 47 106 88 146 171 29 61 31 72 31 180 0 112 -1
117 -36 191 -65 135 -192 217 -349 226 -58 3 -88 -1 -135 -18z m255 -97 c47
-19 126 -100 151 -154 33 -74 33 -220 1 -292 -47 -105 -110 -155 -224 -182
-56 -13 -70 -13 -127 1 -116 29 -164 69 -218 183 -34 69 -35 77 -31 155 13
247 219 380 448 289z"/>
<path d="M1092 1173 l3 -398 215 -3 c238 -3 271 2 326 50 103 90 98 233 -10
324 -45 38 -45 38 -27 59 79 86 78 219 -3 300 -59 58 -93 65 -315 65 l-191 0
2 -397z m393 297 c46 -22 85 -80 85 -126 0 -39 -33 -90 -72 -114 -29 -17 -51
-20 -170 -20 l-138 0 0 140 0 140 127 0 c106 0 133 -3 168 -20z m46 -354 c60
-25 84 -60 84 -121 0 -61 -22 -100 -71 -125 -30 -15 -282 -28 -329 -16 -21 5
-23 13 -29 128 -7 110 -6 123 10 135 26 19 290 18 335 -1z"/>
<path d="M4415 1558 c-3 -7 -4 -186 -3 -398 l3 -385 45 0 45 0 3 140 3 140 62
63 62 64 54 -6 c109 -13 194 -83 232 -192 16 -44 37 -156 39 -206 0 -5 20 -8
45 -8 l45 0 0 49 c0 183 -100 356 -245 422 -36 16 -65 32 -65 35 0 3 59 66
130 139 72 74 130 138 130 144 0 6 -20 11 -47 11 l-47 0 -191 -190 c-105 -104
-194 -190 -198 -190 -3 0 -8 84 -9 188 l-3 187 -43 3 c-28 2 -44 -1 -47 -10z"/>
<path d="M5397 1448 c-3 -68 -3 -247 1 -398 l7 -275 42 -3 43 -3 2 178 3 178
178 3 177 2 0 40 0 40 -180 0 -181 0 3 138 3 137 233 3 233 2 -3 38 -3 37
-276 3 -276 2 -6 -122z"/>
<path d="M6317 1564 c-9 -9 -9 -740 -1 -772 6 -20 12 -23 48 -20 l41 3 0 395
0 395 -40 3 c-23 2 -44 0 -48 -4z"/>
<path d="M6757 1563 c-9 -8 -9 -670 -1 -740 l7 -53 43 0 44 0 0 335 c0 184 4
335 8 335 4 0 66 -93 137 -207 71 -115 164 -265 208 -335 l79 -128 69 0 69 0
-2 398 -3 397 -42 3 -43 3 0 -335 c0 -185 -3 -336 -7 -336 -12 1 -50 58 -222
340 -227 370 -194 330 -272 330 -36 0 -69 -3 -72 -7z"/>
<path d="M7772 1173 l3 -398 134 -3 c74 -1 159 2 188 8 78 17 165 64 216 119
209 223 110 565 -190 656 -33 10 -96 15 -201 15 l-152 0 2 -397z m287 307
c157 -26 255 -128 268 -281 12 -132 -61 -267 -170 -313 -51 -21 -165 -38 -227
-34 l-55 3 -3 318 -2 317 62 0 c35 0 92 -5 127 -10z"/>
<path d="M8777 1563 c-9 -8 -9 -756 -1 -777 5 -14 38 -16 264 -16 142 0 265 3
274 6 10 4 16 18 16 40 l0 34 -227 2 -228 3 0 135 0 135 168 3 c181 3 186 4
173 57 l-6 25 -170 0 -170 0 0 140 0 140 230 0 230 0 0 40 0 40 -273 0 c-151
0 -277 -3 -280 -7z"/>
<path d="M9690 1169 l0 -400 43 3 42 3 5 165 5 165 78 3 c200 7 294 -78 323
-291 l7 -48 41 3 41 3 -3 60 c-6 104 -48 211 -101 259 -26 24 -27 42 -1 58 34
21 72 85 85 141 23 102 -25 198 -125 250 -53 27 -56 27 -247 27 l-193 0 0
-401z m397 298 c103 -55 106 -198 4 -255 -36 -21 -51 -22 -173 -20 l-133 3 -3
139 c-2 105 1 142 10 148 7 5 69 7 138 6 94 -3 133 -8 157 -21z"/>
</g>
</svg>
